<mxfile host="app.diagrams.net" modified="2022-03-19T04:49:00.435Z" agent="5.0 (Macintosh; Intel Mac OS X 10_15_7) AppleWebKit/537.36 (KHTML, like Gecko) Chrome/99.0.4844.51 Safari/537.36" etag="VBXY3o1IlnWD3f99TokW" version="17.1.3" type="github">
  <diagram name="Page-1" id="c37626ed-c26b-45fb-9056-f9ebc6bb27b6">
    <mxGraphModel dx="1973" dy="1881" grid="1" gridSize="10" guides="1" tooltips="1" connect="1" arrows="1" fold="1" page="1" pageScale="1" pageWidth="1100" pageHeight="850" background="none" math="0" shadow="0">
      <root>
        <mxCell id="0" />
        <mxCell id="1" parent="0" />
        <mxCell id="WwToE0U9YZYKlqzvjyDz-1" value="" style="whiteSpace=wrap;html=1;aspect=fixed;fillColor=#dae8fc;strokeColor=#6c8ebf;" vertex="1" parent="1">
          <mxGeometry x="25" y="50" width="1050" height="1050" as="geometry" />
        </mxCell>
        <mxCell id="pESvZ6Q5EJ6slPtmutQh-8" value="" style="ellipse;shape=cloud;whiteSpace=wrap;html=1;verticalAlign=top;fillColor=#f8cecc;strokeColor=#b85450;sketch=0;dashed=0;strokeWidth=2;" parent="1" vertex="1">
          <mxGeometry x="808" y="105" width="120" height="80" as="geometry" />
        </mxCell>
        <mxCell id="1c7a67bf8fd3230f-49" style="edgeStyle=none;html=1;labelBackgroundColor=none;startFill=0;endArrow=none;endFill=0;strokeWidth=2;fontFamily=Verdana;fontSize=15;exitX=0;exitY=0.5;exitDx=0;exitDy=0;exitPerimeter=0;fontStyle=1;fontColor=#000099;" parent="1" source="pESvZ6Q5EJ6slPtmutQh-1" target="1c7a67bf8fd3230f-46" edge="1">
          <mxGeometry relative="1" as="geometry">
            <mxPoint x="1020" y="515.0923450789792" as="sourcePoint" />
          </mxGeometry>
        </mxCell>
        <mxCell id="1c7a67bf8fd3230f-55" style="edgeStyle=none;html=1;labelBackgroundColor=none;startFill=0;endArrow=none;endFill=0;strokeWidth=2;fontFamily=Verdana;fontSize=15;fontStyle=1;fontColor=#000099;" parent="1" source="1c7a67bf8fd3230f-46" target="pESvZ6Q5EJ6slPtmutQh-7" edge="1">
          <mxGeometry relative="1" as="geometry">
            <mxPoint x="440" y="170" as="targetPoint" />
          </mxGeometry>
        </mxCell>
        <mxCell id="pESvZ6Q5EJ6slPtmutQh-4" value="" style="rounded=0;orthogonalLoop=1;jettySize=auto;html=1;endArrow=none;endFill=0;strokeWidth=3;fontSize=15;fontStyle=1;fontColor=#000099;" parent="1" source="1c7a67bf8fd3230f-46" target="pESvZ6Q5EJ6slPtmutQh-3" edge="1">
          <mxGeometry relative="1" as="geometry" />
        </mxCell>
        <mxCell id="1c7a67bf8fd3230f-46" value="" style="shape=mxgraph.cisco.routers.router;html=1;dashed=0;fillColor=#036897;strokeColor=#ffffff;strokeWidth=2;verticalLabelPosition=bottom;verticalAlign=top;rounded=0;shadow=0;comic=0;fontFamily=Verdana;fontSize=15;fontStyle=1;fontColor=#000099;" parent="1" vertex="1">
          <mxGeometry x="190" y="399" width="78" height="53" as="geometry" />
        </mxCell>
        <mxCell id="pESvZ6Q5EJ6slPtmutQh-1" value="R2" style="shape=mxgraph.cisco.routers.router;html=1;dashed=0;fillColor=#036897;strokeColor=#F7F7F7;strokeWidth=2;verticalLabelPosition=bottom;verticalAlign=top;rounded=0;shadow=0;comic=0;fontFamily=Verdana;fontSize=15;fontStyle=1;fontColor=#000099;" parent="1" vertex="1">
          <mxGeometry x="720" y="399" width="78" height="53" as="geometry" />
        </mxCell>
        <mxCell id="pESvZ6Q5EJ6slPtmutQh-6" value="" style="rounded=0;orthogonalLoop=1;jettySize=auto;html=1;endArrow=none;endFill=0;strokeWidth=2;fillColor=#6a00ff;strokeColor=#3700CC;fontSize=15;fontStyle=1;fontColor=#000099;" parent="1" source="pESvZ6Q5EJ6slPtmutQh-3" target="pESvZ6Q5EJ6slPtmutQh-5" edge="1">
          <mxGeometry relative="1" as="geometry" />
        </mxCell>
        <mxCell id="pESvZ6Q5EJ6slPtmutQh-3" value="R3" style="shape=mxgraph.cisco.routers.router;html=1;dashed=0;fillColor=#036897;strokeColor=#ffffff;strokeWidth=2;verticalLabelPosition=bottom;verticalAlign=top;rounded=0;shadow=0;comic=0;fontFamily=Verdana;fontSize=15;fontStyle=1;fontColor=#000099;" parent="1" vertex="1">
          <mxGeometry x="190" y="880" width="78" height="53" as="geometry" />
        </mxCell>
        <mxCell id="pESvZ6Q5EJ6slPtmutQh-5" value="R4" style="shape=mxgraph.cisco.routers.router;html=1;dashed=0;fillColor=#036897;strokeColor=#ffffff;strokeWidth=2;verticalLabelPosition=bottom;verticalAlign=top;rounded=0;shadow=0;comic=0;fontFamily=Verdana;fontSize=15;fontStyle=1;fontColor=#000099;" parent="1" vertex="1">
          <mxGeometry x="730" y="880" width="78" height="53" as="geometry" />
        </mxCell>
        <mxCell id="pESvZ6Q5EJ6slPtmutQh-7" value="SW1" style="shape=mxgraph.cisco.switches.workgroup_switch;sketch=0;html=1;pointerEvents=1;dashed=0;fillColor=#036897;strokeColor=#ffffff;strokeWidth=2;verticalLabelPosition=bottom;verticalAlign=top;align=center;outlineConnect=0;fontFamily=Helvetica;fontSize=15;fontColor=#000099;fontStyle=1" parent="1" vertex="1">
          <mxGeometry x="449" y="120" width="101" height="50" as="geometry" />
        </mxCell>
        <mxCell id="pESvZ6Q5EJ6slPtmutQh-9" value="" style="edgeStyle=none;rounded=0;orthogonalLoop=1;jettySize=auto;html=1;endArrow=none;endFill=0;strokeWidth=2;entryX=0.1;entryY=0.488;entryDx=0;entryDy=0;entryPerimeter=0;fontSize=15;fontStyle=1;fontColor=#000099;" parent="1" source="pESvZ6Q5EJ6slPtmutQh-7" target="pESvZ6Q5EJ6slPtmutQh-8" edge="1">
          <mxGeometry relative="1" as="geometry" />
        </mxCell>
        <mxCell id="pESvZ6Q5EJ6slPtmutQh-11" value="Simple Network Diagram for Aevo One First" style="text;strokeColor=none;fillColor=none;align=left;verticalAlign=middle;spacingLeft=4;spacingRight=4;overflow=hidden;points=[[0,0.5],[1,0.5]];portConstraint=eastwest;rotatable=0;fontStyle=1;fontSize=20;fontFamily=Helvetica;fontColor=#FF6666;" parent="1" vertex="1">
          <mxGeometry x="239" y="1040" width="481" height="30" as="geometry" />
        </mxCell>
        <mxCell id="pESvZ6Q5EJ6slPtmutQh-13" value="R1" style="text;strokeColor=none;fillColor=none;align=left;verticalAlign=middle;spacingLeft=4;spacingRight=4;overflow=hidden;points=[[0,0.5],[1,0.5]];portConstraint=eastwest;rotatable=0;fontSize=15;fontStyle=1;fontColor=#000099;" parent="1" vertex="1">
          <mxGeometry x="190" y="369" width="80" height="30" as="geometry" />
        </mxCell>
      </root>
    </mxGraphModel>
  </diagram>
</mxfile>
